<?xml version="1.0" encoding="utf-8"?>
<!-- Generator: Adobe Illustrator 16.0.0, SVG Export Plug-In . SVG Version: 6.00 Build 0)  -->
<!DOCTYPE svg PUBLIC "-//W3C//DTD SVG 1.1//EN" "http://www.w3.org/Graphics/SVG/1.1/DTD/svg11.dtd">
<svg version="1.1" id="Layer_1" xmlns="http://www.w3.org/2000/svg" xmlns:xlink="http://www.w3.org/1999/xlink" x="0px" y="0px"
	 width="24px" height="24px" viewBox="0 0 24 24" enable-background="new 0 0 24 24" xml:space="preserve">
<path d="M4.208,16.209C4.208,20.516,7.691,24,12,24s7.792-3.484,7.792-7.791v-4.453H4.208V16.209z M16.586,3.262l2.339-2.339
	L18.011,0L15.45,2.572C14.404,2.047,13.247,1.737,12,1.737s-2.404,0.31-3.439,0.835L5.989,0L5.075,0.923l2.339,2.339
	C5.477,4.678,4.208,6.945,4.208,9.53v1.112h15.584V9.53C19.792,6.945,18.523,4.678,16.586,3.262z M8.661,8.416
	c-0.612,0-1.113-0.501-1.113-1.112c0-0.614,0.501-1.114,1.113-1.114s1.113,0.5,1.113,1.114C9.774,7.915,9.272,8.416,8.661,8.416z
	 M15.339,8.416c-0.612,0-1.113-0.501-1.113-1.112c0-0.614,0.501-1.114,1.113-1.114s1.113,0.5,1.113,1.114
	C16.453,7.915,15.951,8.416,15.339,8.416z"/>
</svg>
