<?xml version="1.0" encoding="utf-8"?>
<!-- Generator: Adobe Illustrator 16.0.0, SVG Export Plug-In . SVG Version: 6.00 Build 0)  -->
<!DOCTYPE svg PUBLIC "-//W3C//DTD SVG 1.1//EN" "http://www.w3.org/Graphics/SVG/1.1/DTD/svg11.dtd">
<svg version="1.1" id="Layer_1" xmlns="http://www.w3.org/2000/svg" xmlns:xlink="http://www.w3.org/1999/xlink" x="0px" y="0px"
	 width="24px" height="24px" viewBox="0 0 24 24" enable-background="new 0 0 24 24" xml:space="preserve">
<path d="M11.999,0L11.999,0C6.141,0,1.358,1.575,1.358,3.531c0,0.516,1.278,7.899,1.785,10.829c0.227,1.313,3.62,3.24,8.854,3.24
	l0.006-0.017V17.6c5.233,0,8.627-1.927,8.854-3.24c0.506-2.93,1.784-10.313,1.784-10.829C22.642,1.575,17.858,0,11.999,0L11.999,0z
	 M11.999,15.227c-1.867,0-3.383-1.515-3.383-3.382s1.516-3.383,3.383-3.383c1.869,0,3.383,1.515,3.383,3.383
	S13.867,15.227,11.999,15.227z M11.997,4.622c-3.764-0.005-6.813-0.659-6.813-1.46s3.053-1.445,6.817-1.439
	c3.765,0.005,6.813,0.659,6.813,1.46S15.761,4.628,11.997,4.622z M19.647,16.729c-0.162,0-0.292,0.114-0.292,0.114
	s-2.62,2.075-7.356,2.075s-7.356-2.075-7.356-2.075s-0.13-0.114-0.292-0.114c-0.193,0-0.377,0.13-0.377,0.416
	c0,0.031,0.004,0.061,0.009,0.09c0.406,2.177,0.704,3.721,0.757,3.957C5.094,22.792,8.227,24,11.998,24l0,0h0.001
	c3.772,0,6.905-1.208,7.259-2.809c0.054-0.235,0.35-1.78,0.757-3.957c0.006-0.029,0.008-0.059,0.008-0.09
	C20.022,16.858,19.84,16.729,19.647,16.729z M13.939,11.87c0,1.018-0.824,1.843-1.842,1.843s-1.843-0.825-1.843-1.843
	c0-1.017,0.825-1.842,1.843-1.842S13.939,10.853,13.939,11.87z"/>
</svg>
