<?xml version="1.0" encoding="utf-8"?>
<!-- Generator: Adobe Illustrator 16.0.0, SVG Export Plug-In . SVG Version: 6.00 Build 0)  -->
<!DOCTYPE svg PUBLIC "-//W3C//DTD SVG 1.1//EN" "http://www.w3.org/Graphics/SVG/1.1/DTD/svg11.dtd">
<svg version="1.1" id="Layer_1" xmlns="http://www.w3.org/2000/svg" xmlns:xlink="http://www.w3.org/1999/xlink" x="0px" y="0px"
	 width="24px" height="24px" viewBox="0 0 24 24" enable-background="new 0 0 24 24" xml:space="preserve">
<g>
	<path d="M5.634,13.77c-1.187,0-2.151,0.967-2.151,2.153c0,1.184,0.965,2.147,2.151,2.147c1.185,0,2.15-0.964,2.15-2.147
		C7.784,14.736,6.818,13.77,5.634,13.77z M7.313,15.923c0,0.205-0.167,0.375-0.375,0.375H6.009v0.926
		c0,0.208-0.167,0.375-0.375,0.375c-0.206,0-0.375-0.167-0.375-0.375v-0.926H4.328c-0.207,0-0.375-0.17-0.375-0.375
		c0-0.208,0.168-0.375,0.375-0.375h0.931v-0.932c0-0.208,0.169-0.375,0.375-0.375c0.208,0,0.375,0.167,0.375,0.375v0.932h0.929
		C7.146,15.548,7.313,15.715,7.313,15.923z"/>
	<path d="M19.338,11.259h-4.465h-0.652v-1.207c0-0.413-0.336-0.75-0.75-0.75H12.75V7.11c0-1.21,0.982-2.194,2.191-2.194h2.928
		c0.415,0,0.75-0.334,0.75-0.75c0-0.413-0.335-0.75-0.75-0.75h-2.928c-2.036,0-3.691,1.658-3.691,3.694v2.191h-0.719
		c-0.415,0-0.75,0.337-0.75,0.75v1.207H9.127H4.661C2.092,11.259,0,13.351,0,15.923c0,2.569,2.092,4.661,4.661,4.661h14.677
		c2.57,0,4.662-2.092,4.662-4.661C24,13.351,21.908,11.259,19.338,11.259z M5.634,18.82c-1.6,0-2.901-1.301-2.901-2.897
		c0-1.6,1.302-2.903,2.901-2.903s2.9,1.304,2.9,2.903C8.534,17.52,7.233,18.82,5.634,18.82z M11.016,17.988h-0.971
		c-0.209,0-0.375-0.167-0.375-0.375c0-0.205,0.166-0.375,0.375-0.375h0.971c0.208,0,0.375,0.17,0.375,0.375
		C11.391,17.821,11.224,17.988,11.016,17.988z M13.957,17.988h-0.984c-0.208,0-0.375-0.167-0.375-0.375
		c0-0.205,0.167-0.375,0.375-0.375h0.984c0.207,0,0.375,0.17,0.375,0.375C14.332,17.821,14.164,17.988,13.957,17.988z M17.01,16.532
		c-0.146,0.158-0.372,0.255-0.606,0.255c-0.231,0-0.451-0.091-0.616-0.255c-0.321-0.346-0.322-0.873-0.014-1.213
		c0.355-0.357,0.936-0.343,1.248,0C17.353,15.653,17.352,16.189,17.01,16.532z M18.965,18.486c-0.146,0.158-0.37,0.255-0.604,0.255
		c-0.232,0-0.457-0.094-0.613-0.261c-0.331-0.334-0.332-0.87,0.003-1.216c0.335-0.325,0.896-0.313,1.212-0.006
		C19.309,17.61,19.307,18.146,18.965,18.486z M18.967,14.575c-0.146,0.161-0.371,0.258-0.605,0.258s-0.458-0.097-0.616-0.267
		c-0.329-0.334-0.329-0.87,0.007-1.213c0.305-0.322,0.91-0.328,1.224,0.006C19.309,13.696,19.309,14.232,18.967,14.575z
		 M20.945,16.521c-0.176,0.176-0.394,0.267-0.627,0.267c-0.234,0-0.458-0.097-0.615-0.264c-0.33-0.334-0.332-0.87,0.008-1.216
		c0.296-0.319,0.896-0.334,1.227,0C21.256,15.659,21.256,16.187,20.945,16.521z"/>
</g>
</svg>
