<?xml version="1.0" encoding="utf-8"?>
<!-- Generator: Adobe Illustrator 16.0.0, SVG Export Plug-In . SVG Version: 6.00 Build 0)  -->
<!DOCTYPE svg PUBLIC "-//W3C//DTD SVG 1.1//EN" "http://www.w3.org/Graphics/SVG/1.1/DTD/svg11.dtd">
<svg version="1.1" id="Layer_1" xmlns="http://www.w3.org/2000/svg" xmlns:xlink="http://www.w3.org/1999/xlink" x="0px" y="0px"
	 width="24px" height="24px" viewBox="3 3 24 24" enable-background="new 3 3 24 24" xml:space="preserve">
<path id="Github__x28_alt_x29__3_" d="M20.528,5.8c0.308,0.705,0.514,1.885,0.212,2.745c1.226,1.054,1.66,3.609,1.058,5.707
	c1.757,0.137,3.848-0.062,5.202,0.476c-1.264-0.163-2.994-0.48-4.617-0.373c-0.308,0.023-0.771-0.012-0.748,0.422
	c1.894,0.151,3.769,0.307,5.315,0.792c-1.541-0.25-3.4-0.63-5.315-0.686c-0.78,1.552-2.371,2.322-4.567,2.484
	c0.235,0.515,0.695,0.706,0.797,1.541c0.164,1.225-0.245,3.028,0.161,3.849c0.204,0.396,0.531,0.402,0.746,0.733
	c-0.537,0.646-1.87-0.07-2.017-0.733c-0.258-1.147,0.396-2.924-0.322-3.701c0.05,1.248-0.287,3.004,0.05,4.123
	c0.14,0.442,0.535,0.608,0.434,1.007c-2.5,0.255-1.455-3.231-1.866-5.288c-0.375,0.035-0.211,0.562-0.212,0.791
	c-0.01,2.013,0.411,4.76-1.749,4.495c-0.066-0.419,0.293-0.563,0.425-0.954c0.397-1.126-0.073-2.813,0.106-4.174
	c-0.824,0.628,0.09,2.794-0.423,3.913c-0.293,0.636-1.244,0.917-1.967,0.635c0.094-0.475,0.587-0.401,0.797-0.847
	c0.292-0.625,0.001-1.518,0.105-2.434c-1.527,0.306-2.71-0.044-3.293-1.005c-0.257-0.427-0.319-0.939-0.634-1.316
	c-0.307-0.379-0.808-0.427-0.958-0.944c1.895-0.461,1.966,1.946,3.667,1.998c0.524,0.021,0.793-0.146,1.275-0.259
	c0.138-0.608,0.423-1.056,0.847-1.38c-2.112-0.284-3.858-0.943-4.669-2.533c-1.922,0.095-3.681,0.352-5.315,0.745
	c1.483-0.536,3.303-0.733,5.259-0.794c-0.118-0.693-1.126-0.503-1.75-0.479C5.393,14.403,3.926,14.552,3,14.728
	c1.346-0.479,3.224-0.419,5.042-0.423C7.488,12.56,7.679,9.787,8.896,8.753C8.552,7.887,8.659,6.477,9.106,5.8
	c1.357,0.059,2.177,0.647,3.031,1.217c1.055-0.302,2.16-0.454,3.609-0.374c0.609,0.034,1.24,0.306,1.693,0.267
	c0.447-0.044,0.94-0.547,1.382-0.745C19.388,5.917,19.873,5.822,20.528,5.8z"/>
</svg>
