<?xml version="1.0" encoding="utf-8"?>
<!-- Generator: Adobe Illustrator 16.0.0, SVG Export Plug-In . SVG Version: 6.00 Build 0)  -->
<!DOCTYPE svg PUBLIC "-//W3C//DTD SVG 1.1//EN" "http://www.w3.org/Graphics/SVG/1.1/DTD/svg11.dtd">
<svg version="1.1" id="Layer_1" xmlns="http://www.w3.org/2000/svg" xmlns:xlink="http://www.w3.org/1999/xlink" x="0px" y="0px"
	 width="24px" height="24px" viewBox="0 0 24 24" enable-background="new 0 0 24 24" xml:space="preserve">
<path fill-rule="evenodd" clip-rule="evenodd" d="M22.211,4.501c0,5.021,0,9.985,0,14.998c-6.811,0-13.586,0-20.422,0
	c0-4.988,0-9.971,0-14.998C8.582,4.501,15.357,4.501,22.211,4.501z M19.275,19.307c0-0.914,0.012-1.739-0.01-2.563
	c-0.004-0.153-0.092-0.361-0.213-0.446c-1.838-1.295-3.689-2.574-5.537-3.856c-0.518,0.432-0.979,0.814-1.467,1.22
	c-0.561-0.451-1.102-0.885-1.646-1.322c-1.713,1.351-3.389,2.67-5.059,3.999c-0.149,0.118-0.354,0.29-0.361,0.444
	c-0.035,0.838-0.017,1.68-0.017,2.525C9.781,19.307,14.471,19.307,19.275,19.307z M11.951,10.746
	c2.184-2.086,4.225-4.033,6.342-6.055c-4.182,0-8.225,0-11.98,0C8.084,6.594,9.965,8.613,11.951,10.746z M19.242,7.543
	c-1.871,1.593-3.598,3.063-5.389,4.586c1.811,1.241,3.551,2.436,5.389,3.696C19.242,13.018,19.242,10.373,19.242,7.543z
	 M10.059,12.02C8.359,10.604,6.74,9.253,5.021,7.82c0,2.787,0,5.407,0,8.152C6.738,14.625,8.35,13.361,10.059,12.02z"/>
</svg>
