<?xml version="1.0" encoding="utf-8"?>
<!-- Generator: Adobe Illustrator 16.0.0, SVG Export Plug-In . SVG Version: 6.00 Build 0)  -->
<!DOCTYPE svg PUBLIC "-//W3C//DTD SVG 1.1//EN" "http://www.w3.org/Graphics/SVG/1.1/DTD/svg11.dtd">
<svg version="1.1" id="Layer_1" xmlns="http://www.w3.org/2000/svg" xmlns:xlink="http://www.w3.org/1999/xlink" x="0px" y="0px"
	 width="24px" height="24px" viewBox="0 0 24 24" enable-background="new 0 0 24 24" xml:space="preserve">
<path d="M18.111,2.222h1.63v3.259H23v1.63h-3.259v3.259h-1.63V7.111h-3.259v-1.63h3.259V2.222z M13.222,17.704
	c0,2.25-2.736,4.074-6.111,4.074S1,19.954,1,17.704c0-2.163,2.527-3.932,5.72-4.066l0.188-0.008c0.814,0,0.611-0.814-0.706-2.537
	c-2.04-0.42-3.776-1.615-3.776-3.778c0-2.346,2.006-4.882,4.302-5.077L6.704,2.222h0.407h6.111c0,0-1.837,0.918-2.58,1.721
	c0.951,0.723,1.562,1.516,1.562,2.557c0,1.853-1.452,3.392-3.056,4.074c-0.531,1.713,3.26,4.686,3.035,4.856
	C12.839,16.08,13.222,16.862,13.222,17.704z M6.704,15.056c-2.7,0-3.26,1.48-3.26,3.056c0,1.222,1.63,1.833,3.667,1.833
	c2.7,0,4.277-0.665,4.277-2.24S9.963,15.26,6.704,15.056z M6.704,3.444c-1.8,0-2.038,1.459-2.038,3.259
	c0,1.8,0.849,3.259,2.648,3.259s2.241-1.459,2.241-3.259C9.556,4.904,8.504,3.444,6.704,3.444z"/>
</svg>
