<?xml version="1.0" encoding="utf-8"?>
<!-- Generator: Adobe Illustrator 16.0.0, SVG Export Plug-In . SVG Version: 6.00 Build 0)  -->
<!DOCTYPE svg PUBLIC "-//W3C//DTD SVG 1.1//EN" "http://www.w3.org/Graphics/SVG/1.1/DTD/svg11.dtd">
<svg version="1.1" id="Layer_1" xmlns="http://www.w3.org/2000/svg" xmlns:xlink="http://www.w3.org/1999/xlink" x="0px" y="0px"
	 width="64px" height="64px" viewBox="0 0 24 24" enable-background="new 0 0 24 24" xml:space="preserve">
<path d="M14.035,18.018l1.18,0.843l-0.193,0.03l0.193,0.139c-1.883,0.304-3.307,0.42-4.366,0.412
	c-3.142,0.015-3.268-1.004-2.625-1.516c0.147-0.189,0.396-0.344,0.673-0.413C8.896,18.86,12.014,18.354,14.035,18.018z
	 M14.457,15.659l1.01,0.674c-2.19,0.758-3.533,0.803-4.728,0.795c-3.206,0.013-3.641-0.901-3.04-1.315
	c0.091-0.144,0.277-0.261,0.523-0.322C8.56,16.838,11.255,16.165,14.457,15.659z M16.311,16.838c0,0,1.027-0.662,1.8-1.408
	c0.313-0.325,0.562-0.656,0.643-0.95c0.422-1.517-1.938-1.517-1.938-1.517c0.166-0.06,3.201-1.265,2.99,1.115
	c0.057,1.118-1.028,2.576-3.443,2.894C16.289,16.984,16.248,16.938,16.311,16.838z M16.647,5.381l-0.221,0.181l-0.009,0.045
	l0.229-0.057c-0.621,0.62-3.307,1.827-3.406,3.314l0.036,0.224c0.212,0.849,1.291,1.463,1.223,2.39
	c0.043,0.58-0.348,1.277-1.729,2.244l0.058-0.163c-0.072,0.054-0.147,0.107-0.227,0.162l0.506-1.432
	c0.337-1.011-1.348-1.348-1.348-2.696c0-0.931,0.439-1.671,1.05-2.249C14.177,5.9,16.647,5.381,16.647,5.381z M13.951,1
	c0.584,0.649,0.805,1.273,0.782,1.87c0.102,2.584-4.504,4.688-4.573,6.218c0.059,1.354,1.446,3.384,1.77,3.707l-0.362-0.296
	l0.362,0.464c0,0-0.197-0.15-0.488-0.403c0.138,0.194,0.252,0.336,0.319,0.403c0,0-2.864-2.19-2.864-3.875
	c0-0.657,0.338-1.41,1.35-2.396c0.558-0.572,1.348-1.224,2.441-1.985c0.136-0.094,0.258-0.193,0.369-0.296
	c1.263-1.362,0.726-3.242,0.726-3.242c0.083,0.092,0.158,0.183,0.227,0.273c-0.029-0.173-0.058-0.273-0.058-0.273L14,1.225L13.951,1
	z M9.233,12.795l-0.618,0.242c0.274-0.048,0.45-0.074,0.45-0.074c-0.047,0.018-0.093,0.035-0.139,0.053l0.307-0.053
	c-0.943,0.354-1.773,0.708-1.948,0.961c0.299,0.314,2.641,0.304,9.278-0.455l-0.381,0.192c0.07-0.008,0.141-0.016,0.172,0
	l0.209-0.023c0,0-1.923,1.24-6.726,1.22c-0.839,0.002-1.77-0.035-2.795-0.125c-1.697-0.272-1.911-0.578-1.49-0.857
	C5.821,13.307,9.233,12.795,9.233,12.795z M6.874,19.197l-0.284,0.17c0.039-0.001,0.078-0.001,0.104,0.005l0.181-0.006
	c0,0-0.846,0.444-0.959,0.853c0.082,0.258,0.585,0.47,1.971,0.495c9.098,0.169,11.12-1.18,11.12-1.18l-0.285,0.309l0.285-0.14
	c-1.057,1.321-3.357,1.813-7.55,1.802c-1.196,0.001-2.55,0.127-4.076,0.052c-3.641-0.183-4.135-0.926-3.5-1.417
	C4.221,19.654,5.821,19.197,6.874,19.197z M20.354,20.883c-1.087,1.553-4.3,2.129-7.086,2.117c-3.318,0.007-6.394-0.433-6.394-0.602
	C6.874,22.398,14.962,23.157,20.354,20.883z"/>
</svg>
